<svg width="34" height="34" viewBox="0 0 34 34" fill="none" xmlns="http://www.w3.org/2000/svg">
<g clip-path="url(#clip0_1_339)">
<rect width="34" height="34" rx="17" fill="white"/>
<path fill-rule="evenodd" clip-rule="evenodd" d="M32.9273 46.9869C32.757 46.0246 32.6009 45.0598 32.459 44.0929C32.3917 43.6339 32.3259 43.1744 32.2669 42.7142C32.2255 42.3918 32.1625 42.023 32.3818 41.7842C32.6904 41.4481 32.9707 41.1604 33.0085 40.6789C33.044 40.2259 32.8909 39.7321 32.7951 39.2923C32.5943 38.3702 32.3444 37.4594 32.0682 36.5573C31.7876 35.6408 31.4799 34.7328 31.1677 33.8266C30.8759 32.9794 30.5954 32.1245 30.2153 31.3116C29.494 29.7689 28.2738 28.6265 26.7656 27.8637C26.3906 27.674 25.6255 26.9967 25.2337 26.8451C24.8734 26.7057 24.8747 27.1128 24.5202 26.9595C24.2367 26.8369 23.9728 26.6734 23.8141 26.3996C23.6418 26.1024 23.2097 25.6866 23.1439 25.3406C23.0045 24.6071 23.1555 23.9829 22.6322 23.4308C22.1677 22.9406 21.5433 22.6048 20.8973 22.4245C19.476 22.028 17.5806 22.3052 16.7231 23.6264C16.3136 24.2573 16.1704 25.0199 15.6178 25.5348C15.1352 25.9844 15.2432 26.2918 14.6182 26.5235C14.5828 26.5367 13.6233 26.3308 13.5879 26.344C12.9042 26.1976 12.2507 26.6073 11.6234 26.8451C10.6882 27.1995 9.79781 27.6609 8.96131 28.2091C7.2746 29.3147 5.82995 30.7503 4.63895 32.3749C3.4381 34.0128 2.50637 35.8488 1.84295 37.7675C1.68184 38.2336 1.53712 38.7053 1.40947 39.1817C1.33802 39.4483 1.26167 39.7248 1.34867 39.9977C1.41982 40.221 1.5781 40.3873 1.76398 40.5212C2.01593 40.7029 2.52133 40.8209 2.51148 41.1862C2.50396 41.4639 2.40978 41.7562 2.36381 42.0307C2.30909 42.3575 2.26413 42.6863 2.21917 43.0146C2.01467 44.5088 1.8555 46.0115 1.7851 47.5184C1.71581 49.0022 1.6583 50.5162 1.76119 51.9996C1.76799 52.0974 1.79715 52.1872 1.84417 52.2631C1.80027 52.2799 1.79689 52.3617 1.85153 52.3733C1.88981 52.3814 1.928 52.3895 1.96629 52.3977C2.04581 52.4578 2.14498 52.4948 2.2591 52.4984C2.33647 52.5008 2.41379 52.5043 2.49108 52.5083C3.30661 52.6788 4.12202 52.8399 4.9482 52.9619C5.95248 53.1102 6.95972 53.231 7.97009 53.3293C10.0462 53.5312 12.106 53.4643 14.1849 53.3554C16.2605 53.2467 18.335 53.2213 20.4128 53.2754C22.4924 53.3295 24.5713 53.42 26.6514 53.4571C28.9753 53.4984 31.2956 53.4349 33.6128 53.2501C33.9305 53.2248 34.1271 52.9719 34.0644 52.6562C33.689 50.765 33.2636 48.8863 32.9273 46.9869Z" fill="white"/>
<path fill-rule="evenodd" clip-rule="evenodd" d="M12.9396 26.2974C13.1545 26.2881 13.3736 26.3228 13.588 26.3439C13.6067 26.3457 13.6138 26.3746 13.5927 26.379C13.2091 26.4592 12.8296 26.5689 12.4527 26.6803L12.2914 26.728C11.8664 26.8538 11.454 26.9835 11.0426 27.1512C10.2227 27.4855 9.444 27.9367 8.72734 28.4551C5.96768 30.4511 3.97035 33.4732 2.70993 36.602C2.36764 37.4517 2.07761 38.3226 1.84268 39.2081C1.78555 39.4236 1.73181 39.6399 1.68085 39.8568C1.66589 39.9204 1.60069 40.0834 1.63644 40.1484C1.66804 40.206 1.79092 40.2415 1.848 40.2715L2.04073 40.3714C2.41665 40.5652 3.04284 40.8838 3.10564 40.9149L3.20357 40.9631C4.80543 41.7487 6.517 42.4149 8.31959 42.461L8.33371 42.307V42.307C8.41407 41.4556 8.51954 40.5998 8.74973 39.7746C8.76212 39.7302 8.81852 39.7452 8.82368 39.7846C8.95192 40.7615 8.91093 41.746 8.86619 42.7274C8.78696 44.4657 8.68175 46.2029 8.58824 47.9405C8.54142 48.8097 8.48092 49.6783 8.42628 50.547C8.37157 51.4175 8.35386 52.3089 8.22892 53.1721C8.20107 53.3646 7.97578 53.4692 7.80516 53.4489C7.61637 53.4264 7.47114 53.2601 7.47026 53.0694C7.46797 52.5665 7.53114 52.0577 7.56626 51.556C7.59959 51.0794 7.63538 50.603 7.67206 50.1266C7.80609 48.388 7.96027 46.6514 8.10288 44.9135C8.15341 44.2972 8.208 43.6813 8.2642 43.0655C6.35464 43.004 4.57065 42.2964 2.86876 41.4697C2.84413 42.0292 2.78464 42.5877 2.72704 43.1449C2.56627 44.6999 2.42451 46.2542 2.31841 47.814C2.26483 48.6018 2.22583 49.3905 2.19186 50.1794C2.17517 50.5671 2.16157 50.9549 2.15113 51.3428C2.14764 51.4721 2.14448 51.6014 2.14169 51.7307L2.13588 52.0269C2.13113 52.2146 2.11206 52.3885 1.95419 52.5252C1.79383 52.6639 1.57724 52.6713 1.41854 52.5252C1.20609 52.3295 1.24365 52.0628 1.24995 51.8C1.25519 51.5783 1.26148 51.3566 1.26879 51.135C1.28345 50.6917 1.30217 50.2485 1.32495 49.8056C1.40464 48.257 1.56388 46.7146 1.77197 45.1784L1.85321 44.5854C2.00491 43.4829 2.17146 42.3555 2.51058 41.2935C2.37854 41.2278 2.24688 41.1617 2.11572 41.0952C1.88307 40.9774 1.64252 40.8668 1.41638 40.7367C1.23697 40.6335 1.08224 40.492 1.0323 40.2832C0.976599 40.0505 1.06177 39.7959 1.11836 39.569L1.12327 39.549C1.17875 39.3204 1.2385 39.0928 1.30154 38.8662C1.55717 37.9473 1.87327 37.0463 2.2432 36.1673C2.9839 34.4075 3.93997 32.7357 5.10782 31.2241C6.15904 29.8634 7.40088 28.6295 8.85634 27.704C9.56789 27.2516 10.3262 26.88 11.1281 26.6174C11.5029 26.4946 11.9108 26.3879 12.3032 26.3439C12.5149 26.3202 12.7269 26.3066 12.9396 26.2974ZM16.7472 23.5089C17.0026 23.2345 17.5099 23.5184 17.3873 23.8817C17.0989 24.7363 16.6396 25.5159 15.9228 26.0775C15.249 26.6055 14.4456 26.9483 13.5803 26.8752C13.5736 26.8746 13.5678 26.8729 13.5627 26.8705L13.6373 26.9717C14.2227 27.7638 14.8403 28.5451 15.5847 29.1926C17.1013 30.5119 19.1662 31.2234 21.1601 30.7173C22.7289 30.319 24.111 29.078 24.5175 27.4964C24.4592 27.5226 24.39 27.5315 24.314 27.515C23.9887 27.4443 23.6668 27.1022 23.457 26.8568C23.2301 26.5914 23.0529 26.3048 22.923 25.9809C22.6853 25.388 22.6091 24.6246 22.9337 24.0503C22.9737 23.9795 23.0661 24.0192 23.074 24.0883L23.0863 24.1962C23.1489 24.7344 23.2268 25.2551 23.4805 25.7457C23.6047 25.9858 23.7535 26.2202 23.9346 26.4213C24.0316 26.5288 24.1366 26.6316 24.2501 26.7218C24.3606 26.8097 24.4944 26.8733 24.5935 26.9741L24.6117 26.9935L24.6122 26.99C24.6373 26.7769 24.7866 26.683 24.9328 26.6889C25.0742 26.6946 25.2403 26.7569 25.3047 26.7867L25.3108 26.7896C26.2975 27.2634 27.2062 27.881 28.0614 28.5663C29.83 29.9833 31.1551 31.8358 31.7972 34.0173C32.1123 35.0879 32.2931 36.1911 32.484 37.2892L32.6015 37.962C32.7796 38.9757 32.9786 40.0093 33.3808 40.9523C33.4848 41.1963 33.4046 41.425 33.1496 41.5209C32.8311 41.6407 32.5114 41.7567 32.1912 41.8713C32.3484 42.546 32.4443 43.2442 32.5621 43.9223C32.8125 45.3636 33.1193 46.7958 33.3823 48.2352C33.5168 48.9712 33.6382 49.7097 33.7726 50.4458C33.8372 50.8003 33.9048 51.1542 33.9704 51.5085C34.0058 51.6996 34.0379 51.8913 34.0716 52.0826L34.0775 52.1143C34.0968 52.2152 34.1211 52.3196 34.0934 52.4206C34.0617 52.5358 33.9719 52.6172 33.8916 52.6998C33.8256 52.7678 33.7301 52.7682 33.6492 52.7311L33.6226 52.7188C33.4781 52.6512 33.3649 52.5837 33.3136 52.4206C33.2811 52.3174 33.2694 52.2011 33.2482 52.0947C33.2075 51.8907 33.169 51.6865 33.1325 51.4817C33.0597 51.072 32.9885 50.662 32.9191 50.2516L32.8542 49.8674C32.6315 48.5431 32.42 47.2107 32.3131 45.8725C32.2657 45.2788 32.2154 44.6856 32.1647 44.0923L32.1266 43.6472C32.0784 43.084 32.0196 42.5065 32.0113 41.9356L31.8198 42.0036V42.0036L30.8855 42.334V42.334C30.6539 42.4159 30.359 42.5837 30.1097 42.5532C29.9876 42.5382 29.8946 42.4998 29.8228 42.43C29.9088 43.6445 30.0253 44.857 30.1805 46.0632C30.3217 47.1608 30.4782 48.2569 30.6631 49.348C30.7547 49.8883 30.8488 50.4281 30.951 50.9665C31.0021 51.2357 31.0548 51.5045 31.1091 51.7731C31.1362 51.9071 31.1685 52.0412 31.1896 52.1763C31.2138 52.331 31.1712 52.4262 31.0848 52.5535C31.0138 52.658 30.8719 52.7117 30.7568 52.6396C30.6045 52.5439 30.525 52.4611 30.4802 52.2869C30.4394 52.1286 30.4147 51.9635 30.3831 51.8032C30.325 51.5074 30.2687 51.2113 30.2144 50.9147C30.1009 50.2945 29.9962 49.6728 29.9028 49.0492C29.5734 46.8525 29.3644 44.6374 29.2589 42.4187C29.2068 41.324 29.1907 40.2284 29.1999 39.1325C29.2047 38.5709 29.223 38.0076 29.2627 37.4473C29.3029 36.8801 29.3866 36.3243 29.4613 35.7627C29.4639 35.7429 29.4918 35.7417 29.493 35.7627C29.5284 36.3924 29.5838 37.0214 29.611 37.6528C29.6369 38.2553 29.6483 38.8587 29.6689 39.4614C29.696 40.2536 29.7335 41.0463 29.7833 41.8384C29.8733 41.7399 30.009 41.6831 30.1448 41.7053C30.3416 41.664 30.5533 41.5607 30.7409 41.498L31.448 41.2617V41.2617C31.8197 41.1375 32.1914 41.0142 32.5644 40.8946C32.2309 39.7722 32.0024 38.633 31.8074 37.4773L31.7204 36.9575C31.5482 35.9344 31.3625 34.9108 31.0505 33.9201C30.7226 32.8784 30.2319 31.91 29.5809 31.0331C28.9392 30.1688 28.1585 29.4077 27.3546 28.6959C26.6664 28.0865 25.9303 27.5364 25.2283 26.9437C25.2357 26.983 25.2373 27.0262 25.2308 27.0737C25.0816 28.1664 24.5118 29.184 23.7177 29.9408C22.1224 31.4613 19.761 31.7768 17.7192 31.0638C15.7442 30.3741 13.9979 28.7407 13.381 26.7195C13.3704 26.6849 13.4167 26.6712 13.4353 26.6966C13.4696 26.7435 13.504 26.7904 13.5384 26.8373C13.5361 26.8187 13.5457 26.7984 13.5687 26.7895C14.2886 26.5115 14.9954 26.1171 15.535 25.5593C15.798 25.2874 16.0275 24.9793 16.2087 24.6471C16.2955 24.4879 16.3734 24.3231 16.4356 24.1528L16.4514 24.1087C16.5268 23.8954 16.5898 23.6779 16.7472 23.5089Z" fill="black"/>
<path fill-rule="evenodd" clip-rule="evenodd" d="M16.2259 6.71677L16.5909 7.15095C16.3888 7.29341 16.198 7.43655 16.0186 7.58038L16.0184 7.57995C16.8496 7.03745 17.7701 6.71677 18.7645 6.71677C20.6798 6.71677 24.5702 8.36263 25.4496 9.5498C25.8861 10.1389 26.6971 11.9476 27.1178 13.9139C27.4558 15.4938 27.9586 19.9572 27.4558 21.6344C26.8124 23.7809 24.6954 25.7648 22.5126 25.7648C20.3298 25.7648 16.9409 24.1883 14.529 20.7335C14.4187 20.5755 13.1522 20.3924 12.2487 19.7995L12.4859 22.4138L12.6662 23.9345L12.6264 24.0428C11.9793 25.7935 11.4665 26.7068 11.0881 26.7828C10.7019 26.8603 9.91541 26.2271 8.72866 24.8829L8.57702 24.2462C8.19185 22.6219 7.99927 21.7501 7.99927 21.6306L7.99953 21.6089C8.00521 21.334 8.09987 19.7781 8.10182 19.3594L8.10185 13.0838C9.37817 8.83911 10.5961 6.71677 11.7557 6.71677H16.2259Z" fill="white"/>
<path fill-rule="evenodd" clip-rule="evenodd" d="M13.2018 5.2712C13.577 5.12579 14.0118 5.15327 14.368 5.37223C15.0673 5.34222 15.7628 5.75139 16.1274 6.34867C16.135 6.35712 16.1431 6.36558 16.1503 6.37403L16.2275 6.46413C16.3007 6.55017 16.3779 6.645 16.439 6.74292C16.1395 6.74977 15.89 6.87189 15.7159 7.11853C15.5916 7.29452 15.8763 7.46176 16.0033 7.29531L16.0077 7.28922C16.1123 7.14115 16.2702 7.08379 16.4459 7.08078C16.4964 7.07994 16.5346 7.06062 16.5617 7.03213C16.5725 7.0714 16.5821 7.11109 16.5909 7.15095C17.4758 6.80666 18.4297 6.71549 19.3798 6.79715C19.3381 6.86462 19.3033 6.9369 19.2765 7.01286C19.2461 7.09896 19.311 7.19783 19.3946 7.22083C19.485 7.24568 19.5667 7.19267 19.5994 7.11074L19.6025 7.10272C19.639 6.99925 19.6986 6.91044 19.7786 6.84158C20.2259 6.90224 20.67 6.9987 21.1032 7.12305C21.6239 7.27265 22.1397 7.45521 22.6441 7.66424C22.5586 7.69776 22.4848 7.7544 22.4331 7.84896C22.33 8.0377 22.6136 8.20676 22.7212 8.02632L22.725 8.01964C22.7356 8.00029 22.7449 7.98866 22.7518 7.98204L22.7542 7.97978L22.7691 7.97294L22.7968 7.96499V7.96499L22.8075 7.96238C22.8169 7.96026 22.8208 7.96039 22.8455 7.95903C22.8783 7.95717 22.9112 7.95734 22.9442 7.9573C23.0216 7.95725 23.071 7.9141 23.0933 7.85889C23.3422 7.97129 23.588 8.08964 23.8294 8.21362L23.8868 8.24334C24.6319 8.6328 25.3378 9.14426 25.7473 9.89682C25.7743 9.94712 25.7828 10.0021 25.776 10.0545C25.8635 10.1593 25.948 10.2675 26.0291 10.3774C26.2767 10.7139 26.458 11.0964 26.6295 11.4756C26.9747 12.2382 27.2071 13.0214 27.3884 13.8381C27.5638 14.6251 27.7053 15.4207 27.8367 16.2162C27.9825 17.1001 28.1037 17.9915 28.1291 18.8881C28.1739 20.4863 27.8616 22.0938 26.9646 23.4393C26.1643 24.6398 24.9593 25.593 23.5302 25.8981C22.0767 26.2084 20.5387 25.9058 19.3932 24.9369C19.2085 24.7809 19.2339 24.466 19.3932 24.3063C19.5736 24.1262 19.8398 24.1511 20.0236 24.3063C21.1023 25.2189 22.6725 25.3596 23.9722 24.8947C25.1739 24.4643 26.1153 23.4718 26.6929 22.3572C27.3977 20.9978 27.5165 19.4363 27.4082 17.9324C27.3491 17.1064 27.2261 16.2872 27.0994 15.4693L27.0229 14.9769C26.9394 14.4437 26.8517 13.9111 26.7373 13.3832L26.7105 13.2603C26.5707 12.6237 26.407 11.9709 26.1538 11.3725C26.0211 11.0584 25.8614 10.7557 25.6979 10.4569C25.6662 10.399 25.6336 10.3402 25.6002 10.2811C25.5554 10.2967 25.5043 10.2992 25.4506 10.2823C24.9888 10.1386 24.5143 10.0422 24.0314 10.0101C23.8114 9.99539 23.591 9.99311 23.3709 10.0017C22.9941 9.97975 22.6069 10.0129 22.248 10.1285C22.2128 10.0983 22.1773 10.0688 22.1416 10.0393C22.1321 10.0385 22.1225 10.0375 22.1128 10.0356C22.0213 10.0176 21.9569 9.95253 21.9181 9.87031C21.9161 9.86596 21.9142 9.8616 21.9125 9.85725C21.8666 9.82212 21.8203 9.78755 21.7735 9.75344C21.6596 9.78298 21.5598 9.68817 21.5329 9.58427C21.5076 9.56715 21.4818 9.55058 21.4562 9.5338C21.4361 9.5387 21.4162 9.54276 21.3968 9.5442C21.3129 9.55024 21.2319 9.53739 21.1576 9.49736C21.0635 9.44668 21.0033 9.36493 20.9631 9.27206C20.8208 9.28081 20.6768 9.23461 20.5496 9.15109C20.4463 9.08333 20.3672 8.98978 20.2886 8.89641C19.3303 8.46885 18.2887 8.21641 17.2446 8.15174C17.1418 8.17152 17.0397 8.19507 16.9388 8.22246C16.9149 8.22897 16.881 8.24173 16.842 8.25703C17.0748 8.22888 17.3106 8.22609 17.5497 8.26054C18.6844 8.42468 19.5681 9.27456 20.3287 10.0768C20.5096 10.0402 20.6925 10.2746 20.5251 10.4298L19.2196 11.6401V11.6401C19.2516 11.7754 19.0964 11.9088 18.9605 11.8763C18.7326 11.8215 18.5043 11.7683 18.2758 11.7159C18.0375 11.8313 17.7379 11.8115 17.5217 11.6443C17.5117 11.6365 17.4898 11.6241 17.4709 11.6118C17.4531 11.6264 17.4292 11.6411 17.4197 11.6474C17.3429 11.6983 17.2492 11.7132 17.1594 11.699C17.0671 11.6843 16.9837 11.6374 16.9118 11.579C16.8661 11.5419 16.7595 11.3867 16.7001 11.3753L16.6944 11.3746C16.734 11.3758 16.6067 11.4941 16.5725 11.5185C16.4927 11.5755 16.4045 11.6054 16.3053 11.5945C16.1323 11.5755 15.9836 11.4178 15.899 11.2721L15.8926 11.261L15.8899 11.254L15.8877 11.2615C15.8873 11.2628 15.8868 11.2643 15.8862 11.2659C15.8735 11.3001 15.8337 11.3391 15.8067 11.3631C15.7296 11.4313 15.6342 11.4612 15.5323 11.4434C15.446 11.4284 15.3735 11.3763 15.3152 11.3132L15.3061 11.3031C15.2889 11.2837 15.1752 11.1309 15.1932 11.0943L15.1952 11.0912L15.1896 11.0901C15.1205 11.107 15.0624 11.09 15.0199 11.0544C14.7827 11.0024 14.5486 10.9418 14.322 10.8648C14.3042 10.9147 14.2868 10.9646 14.27 11.0149C14.3937 11.0914 14.5082 11.2004 14.6135 11.2782C14.8129 11.4253 15.0123 11.5724 15.2113 11.7199L15.9999 12.3018V12.3018L16.0901 12.2776V12.2776C16.2053 12.2466 16.3041 12.3137 16.3464 12.4163L16.3499 12.4252C16.3667 12.4701 16.3869 12.5117 16.4106 12.5515C16.6077 12.5436 16.7746 12.6647 16.8286 12.8383C16.8773 12.8372 16.9265 12.8391 16.9767 12.8446C17.1144 12.8597 17.2073 12.962 17.1823 13.1025L17.1804 13.1121L17.1771 13.1278C17.2569 13.1617 17.3148 13.2271 17.3277 13.3261C17.349 13.3583 17.3663 13.3933 17.3773 13.4323C17.4349 13.6345 17.3229 13.8845 17.2632 14.0782L17.2586 14.0934C17.2203 14.2207 17.1806 14.3474 17.1405 14.4741L17.0406 14.7885C16.7636 15.6649 16.4935 16.5888 16.7177 17.5075C16.7655 17.702 16.517 17.7899 16.4092 17.6377C16.148 17.2693 15.8658 16.9221 15.5695 16.5889L15.5551 16.5866V16.5866C15.3476 16.5449 15.267 16.3982 15.1718 16.2488C15.1157 16.2653 15.0553 16.2692 14.997 16.258C14.9126 16.2417 14.837 16.1934 14.7773 16.1325C14.7267 16.0809 14.6803 15.9484 14.6206 15.9156C14.5458 15.8745 14.3954 15.9332 14.3061 15.92C14.2335 15.9093 14.1657 15.8844 14.0999 15.853C13.9789 16.0179 13.8988 16.2118 13.8791 16.4208C13.8715 16.5002 13.8478 16.5675 13.8136 16.6232C13.9395 16.6186 14.0659 16.6275 14.1905 16.6507C14.652 16.7365 14.9828 17.0214 15.1687 17.4458C15.1767 17.4644 15.1526 17.4796 15.1416 17.4619C14.8658 17.0371 14.2653 17.0155 13.8292 17.1652C13.3661 17.3241 13.1063 17.732 13.0138 18.1974C12.9124 18.7076 13.0425 19.2575 13.3201 19.6921C13.449 19.8941 13.6248 20.0784 13.8584 20.1528C14.136 20.2411 14.3925 20.0831 14.6768 20.1646C14.8704 20.22 14.9558 20.4073 14.9206 20.5945C14.9067 20.6681 14.8809 20.7323 14.8463 20.7881C14.9486 20.991 15.0432 21.1998 15.1636 21.3917C15.3495 21.688 15.5743 21.9332 15.8194 22.1805C16.0725 22.4358 16.3302 22.686 16.6011 22.9228C16.8605 23.1497 17.158 23.3112 17.4301 23.5192C17.6211 23.665 17.7157 23.8696 17.6215 24.1038C17.5438 24.2974 17.2818 24.4622 17.0697 24.3747C16.6636 24.2073 16.3082 23.9224 15.9846 23.6291C15.6846 23.3569 15.4235 23.0314 15.2261 22.678C15.04 22.3449 14.9028 21.9665 14.7871 21.6021L14.7728 21.5566C14.7182 21.3833 14.6608 21.1884 14.6236 20.9919C14.401 21.1136 14.0988 21.1314 13.8605 21.0984C13.4756 21.0455 13.1244 20.8515 12.8591 20.5687C12.7354 20.4371 12.6261 20.287 12.5317 20.1244C12.5403 20.2234 12.5454 20.3192 12.5509 20.4064C12.7715 20.6481 12.86 20.9969 12.7817 21.3152C12.9662 21.5052 13.018 21.7905 12.9216 22.0334C13.1236 22.2338 13.116 22.5528 13.0287 22.8425C13.2675 23.1095 13.2901 23.5255 13.1037 23.8268L13.098 23.8484V23.8484C13.2863 24.1636 13.2439 24.5709 13.008 24.8492C13.1691 25.1618 13.1441 25.5823 12.7415 25.7037C12.5948 25.7478 12.4525 25.7101 12.3461 25.6279C12.4433 26.1114 12.4868 26.6023 12.3572 27.088C12.3056 27.2808 12.1171 27.4216 11.919 27.4216C11.7533 27.4216 11.6329 27.3383 11.5497 27.2157C11.5594 27.4596 11.5446 27.7048 11.4927 27.952C11.4613 28.1014 11.3228 28.2178 11.1758 28.2539C11.2289 28.3137 11.25 28.4002 11.1992 28.4903C10.9836 28.872 10.4629 28.7137 10.4277 28.348C10.2806 28.2382 10.2122 28.0579 10.1839 27.8631C10.1427 27.5789 10.1277 27.2995 10.081 27.019L10.0631 27.0357V27.0357L10.0539 27.0437L10.0509 27.064C10.0241 27.2026 9.94597 27.2997 9.84452 27.3576C9.86657 27.5995 9.82576 27.8458 9.67238 28.0294C9.57021 28.1519 9.39617 28.2 9.24697 28.1735C9.23759 28.174 9.228 28.1739 9.21802 28.1726C8.88012 28.1277 8.68462 27.8071 8.77356 27.5128C8.6375 27.346 8.58021 27.1343 8.62048 26.9252C8.35719 26.7508 8.36256 26.3677 8.45374 26.06C8.17774 25.8421 8.07393 25.4348 8.2126 25.111C7.96386 24.802 7.92925 24.3714 8.09826 24.0195C7.82459 23.7945 7.82615 23.3603 8.09759 23.1303C7.95304 22.8432 7.86587 22.4993 8.01033 22.2365C7.90842 22.124 7.85248 21.9636 7.86426 21.8087C7.88155 21.5811 8.03205 21.4239 8.21881 21.3191L8.23174 21.2479V21.2479C8.2756 21.2533 8.32233 21.2411 8.36353 21.2015C8.40431 21.1623 8.44626 21.1308 8.48966 21.1047C8.5388 21.1041 8.5811 21.0822 8.61084 21.0485C8.69222 21.0209 8.77973 21.0086 8.87679 21.0075C9.0864 21.0053 9.0938 20.6917 8.89871 20.6713C8.86791 20.6403 8.82549 20.6207 8.77948 20.6207L8.74344 20.6208C8.6592 20.6216 8.57415 20.6268 8.496 20.6603C8.44521 20.6821 8.40604 20.7148 8.37735 20.7549C8.37198 20.8155 8.33902 20.876 8.26766 20.9259C8.18522 20.9835 8.07249 20.9903 7.98426 20.9381C7.86076 20.865 7.85949 20.751 7.87373 20.6271C7.90491 20.356 7.74908 20.1008 7.78618 19.8235C7.80262 19.7008 7.84343 19.595 7.90998 19.5094C7.76966 19.2993 7.7449 19.0281 7.85294 18.7974C7.62786 18.5552 7.58894 18.1817 7.73248 17.8902C7.73455 17.8832 7.73615 17.8759 7.73839 17.8689C7.75462 17.8194 7.77697 17.7747 7.8016 17.732C7.6756 17.5136 7.67653 17.2457 7.8046 17.0282C7.61062 16.802 7.60445 16.442 7.77697 16.1983C7.77798 16.1781 7.7801 16.1579 7.78183 16.1377C7.70264 15.932 7.72166 15.6982 7.8221 15.507C7.78626 15.4243 7.75863 15.3354 7.74097 15.2406C7.69571 14.9963 7.719 14.7587 7.7866 14.5203C7.79755 14.4827 7.8098 14.4451 7.8229 14.4075C7.8251 14.2442 7.83131 14.0816 7.8395 13.9193C7.80738 13.782 7.80219 13.631 7.80149 13.4909L7.80128 13.4C7.79971 13.1687 7.7836 12.8301 7.92976 12.6335C7.83591 12.4211 7.87449 12.1536 8.03112 11.9853C7.92118 11.7961 7.89811 11.5638 8.0086 11.3539C8.02635 11.3202 8.04693 11.2887 8.06949 11.259C8.06036 11.0668 8.1008 10.8686 8.20318 10.6775C8.26969 10.5532 8.36902 10.4455 8.48712 10.3594C8.48514 10.3339 8.48391 10.3084 8.48433 10.2834C8.4864 10.1715 8.51121 10.0592 8.55295 9.95443C8.47804 9.82652 8.44331 9.68234 8.48712 9.52695C8.53614 9.35111 8.66505 9.19978 8.826 9.1144C8.83897 8.94861 8.86487 8.7838 8.90188 8.62119C8.80297 8.40084 8.88173 8.11002 9.10529 7.98021C9.07614 7.80411 9.10242 7.6215 9.23053 7.48396C9.27908 7.43184 9.33629 7.39231 9.39786 7.36611C9.36819 7.18904 9.40166 7.00483 9.52407 6.86064C9.62404 6.74292 9.77218 6.6714 9.92294 6.66087C9.981 6.35289 10.2751 6.12261 10.5854 6.14095C10.6242 6.00535 10.7169 5.88712 10.8606 5.82718C10.8974 5.81184 10.9346 5.80173 10.9717 5.79611C11.224 5.54148 11.5997 5.36889 11.9249 5.2805C12.2511 5.1922 12.5818 5.18365 12.8619 5.28632L12.8823 5.29403L12.9052 5.29107C13.0041 5.28008 13.1029 5.27374 13.2018 5.2712ZM10.7228 26.1414C10.6357 26.1143 10.5385 26.1736 10.5149 26.2595C10.4899 26.3503 10.5455 26.4403 10.6329 26.4675C10.7419 26.5015 10.8564 26.51 10.9699 26.5101C11.0612 26.5102 11.1389 26.4323 11.1389 26.341C11.1389 26.2492 11.0616 26.172 10.9699 26.1719C10.8776 26.1718 10.8094 26.1685 10.7228 26.1414ZM9.94768 24.3459C9.81741 24.346 9.70569 24.3771 9.6091 24.4684C9.54471 24.5293 9.5431 24.647 9.6091 24.7076C9.67576 24.7687 9.77248 24.7723 9.84091 24.714L9.85409 24.7022C9.85567 24.7008 9.8569 24.6996 9.85789 24.6987C9.86338 24.6951 9.86892 24.6915 9.87475 24.6885L9.86372 24.6957C9.85533 24.7017 9.8748 24.6918 9.88572 24.6872L9.88916 24.6858L9.89025 24.6855L9.899 24.6848C9.91518 24.684 9.93145 24.684 9.94768 24.684C10.0361 24.6839 10.1207 24.6063 10.1167 24.5149C10.1126 24.4234 10.0424 24.3458 9.94768 24.3459ZM12.4059 23.2731C12.5888 23.1609 12.4254 22.8739 12.2419 22.9772L12.2353 22.9811C12.1412 23.0389 12.0255 23.031 11.919 23.0311C11.7015 23.0312 11.7011 23.3694 11.919 23.3693L11.955 23.3691C12.1112 23.3679 12.2692 23.357 12.4059 23.2731ZM10.9662 22.0389C10.828 22.0129 10.6732 21.9896 10.5277 22.0055L10.5036 22.0085H10.4588C10.42 22.0085 10.3823 22.0241 10.3521 22.0487C10.3043 22.0686 10.259 22.0952 10.2176 22.131C10.053 22.2739 10.2929 22.5122 10.4567 22.3702C10.4658 22.3623 10.4763 22.3558 10.4881 22.3504L10.4971 22.3467H10.6779C10.6943 22.3467 10.7103 22.3432 10.7259 22.3383C10.7846 22.3464 10.8393 22.358 10.8763 22.365C11.089 22.405 11.1801 22.0791 10.9662 22.0389ZM10.8118 18.7934C10.5469 18.6705 10.2535 18.6714 10.0085 18.842C9.83327 18.9641 9.99602 19.252 10.1727 19.1383L10.1791 19.134C10.201 19.1187 10.2236 19.1059 10.2464 19.0943C10.3708 19.1303 10.496 19.132 10.6163 19.0877L10.6319 19.0817L10.6413 19.0854C10.8373 19.1763 11.0092 18.885 10.8118 18.7934ZM13.6967 18.2635C13.429 18.2335 13.4269 17.8106 13.6967 17.8408C14.2663 17.9048 14.7831 18.1581 15.1617 18.5931C15.3378 18.7955 15.0478 19.0915 14.8684 18.8982L14.8629 18.892C14.5619 18.5461 14.1557 18.315 13.6967 18.2635ZM10.6984 16.092C10.6389 16.0855 10.5796 16.0823 10.5211 16.0851C10.3808 16.0919 10.2098 16.1855 10.2714 16.3548C10.3208 16.4904 10.4827 16.4958 10.5627 16.4234C10.5959 16.4242 10.6291 16.4264 10.6622 16.4298C10.7505 16.4389 10.8379 16.4557 10.9249 16.4729C11.1374 16.5147 11.2284 16.1888 11.0148 16.1468L10.9203 16.1281C10.8885 16.1219 10.8563 16.1158 10.8241 16.1102C10.8048 16.1006 10.7841 16.0941 10.7619 16.0925L10.7508 16.092H10.6984ZM9.01903 13.4686L8.99918 13.4659C8.71376 13.4293 8.25558 13.4629 8.22095 13.8264C8.2018 14.0277 8.49251 14.0403 8.54989 13.8682C8.76065 13.8302 8.97314 13.8229 9.18247 13.846C9.26233 13.7649 9.26296 13.6088 9.13003 13.5699C9.11127 13.5194 9.0721 13.4762 9.01903 13.4686ZM15.5433 12.8547C15.4773 12.7941 15.3692 12.7861 15.3043 12.8547C15.2669 12.8941 15.2357 12.938 15.2109 12.9863L15.1945 13.0189C15.1917 13.0243 15.1888 13.0297 15.1859 13.035C15.1803 13.0448 15.1741 13.0542 15.1681 13.0638L15.164 13.0678C15.1624 13.0694 15.1605 13.0714 15.1582 13.0738C15.0974 13.1381 15.0897 13.25 15.1582 13.3129C15.2242 13.3735 15.3323 13.3815 15.3973 13.3129C15.4346 13.2734 15.4658 13.2296 15.4906 13.1813L15.507 13.1487C15.5098 13.1433 15.5127 13.1379 15.5156 13.1326C15.5212 13.1227 15.5274 13.1134 15.5334 13.1038L15.5401 13.0971C15.5411 13.0961 15.5422 13.095 15.5433 13.0938C15.6041 13.0295 15.6118 12.9176 15.5433 12.8547ZM12.0773 12.4143C11.8392 12.2455 11.556 12.2376 11.3371 12.4408C11.1791 12.5874 11.4112 12.8222 11.5705 12.6849L11.5761 12.6799C11.5819 12.6745 11.5878 12.6697 11.5936 12.6652C11.6222 12.6896 11.6585 12.705 11.7 12.705C11.7108 12.7051 11.7216 12.705 11.7325 12.7053L11.7487 12.7058L11.7574 12.7065L11.7585 12.7068L11.7661 12.71C11.78 12.7163 11.7992 12.7259 11.7729 12.7095C11.7787 12.7125 11.7842 12.7162 11.7898 12.7197L11.7995 12.7286C11.8632 12.7888 11.9735 12.7968 12.0367 12.7301C12.1487 12.6923 12.2082 12.507 12.0773 12.4143ZM14.4057 11.8604L14.41 11.859C14.6188 11.7994 14.53 11.473 14.3201 11.5329C14.0974 11.5965 13.991 11.8039 13.9465 12.0162C13.9278 12.1056 13.9727 12.199 14.0646 12.2242C14.1485 12.2473 14.2537 12.1959 14.2725 12.1061C14.2857 12.043 14.3009 11.9894 14.3251 11.9397L14.3397 11.9114C14.3465 11.8984 14.3489 11.8963 14.3719 11.8762C14.3758 11.8728 14.3934 11.8646 14.4057 11.8604ZM10.8688 10.1573L10.8361 10.1498C10.6327 10.1053 10.3627 10.082 10.2399 10.2837C10.1279 10.4675 10.4104 10.6348 10.5267 10.4611C10.5285 10.461 10.5305 10.461 10.5329 10.4612L10.5367 10.4617L10.5888 10.4574C10.6538 10.457 10.7159 10.4685 10.7789 10.4834C10.9905 10.5335 11.0807 10.2075 10.8688 10.1573ZM18.1717 8.85731C18.3257 8.70324 18.0867 8.46403 17.9327 8.61823C17.8108 8.7401 17.6933 8.86281 17.6142 9.01764C17.5726 9.09888 17.5929 9.20109 17.6748 9.24898C17.7503 9.29316 17.8643 9.26991 17.906 9.18833C17.9747 9.05412 18.0613 8.9678 18.1717 8.85731ZM16.2282 8.45287C16.0761 8.54299 15.9776 8.69144 15.9178 8.86327C15.8878 8.9495 15.952 9.0482 16.0358 9.07124C16.126 9.09601 16.2083 9.04319 16.2408 8.96116L16.2437 8.95314C16.2598 8.90719 16.2854 8.85291 16.317 8.81195C16.344 8.777 16.3861 8.742 16.4178 8.73037C16.494 8.70239 16.548 8.63332 16.5409 8.55267C16.4156 8.596 16.2993 8.54388 16.2282 8.45287ZM11.6735 7.71737C11.52 7.57484 11.314 7.55594 11.128 7.64222C11.0451 7.6806 11.0244 7.80009 11.0673 7.87356C11.117 7.95856 11.2154 7.97277 11.2985 7.93422C11.2772 7.94411 11.3157 7.93105 11.3324 7.92627C11.3345 7.92726 11.3624 7.92599 11.372 7.92612L11.3836 7.92686C11.3837 7.92694 11.3809 7.92688 11.3751 7.92669C11.3832 7.92852 11.3912 7.93071 11.3991 7.93323L11.4092 7.93672C11.4041 7.93566 11.427 7.95055 11.4333 7.9555L11.4345 7.95645C11.5938 8.10435 11.8334 7.86578 11.6735 7.71737Z" fill="black"/>
<path fill-rule="evenodd" clip-rule="evenodd" d="M23.9379 20.7505C24.0829 20.4946 24.5154 20.5362 24.5816 20.8346C24.7157 21.4397 23.9945 21.9984 23.4467 22.0124C22.9024 22.0262 22.2916 21.5627 22.3704 20.9773C22.3899 20.8324 22.5832 20.85 22.6492 20.9408L22.6747 20.9757C22.8538 21.2163 23.09 21.4653 23.4223 21.4066C23.56 21.3824 23.685 21.2963 23.7683 21.1855C23.8687 21.0518 23.8576 20.8922 23.9379 20.7505ZM20.4766 16.3239C20.5503 16.3036 20.6248 16.3115 20.6902 16.3393C20.8361 16.366 20.958 16.4878 21.0008 16.6268C21.0042 16.6388 21.008 16.6507 21.0122 16.6624L21.0187 16.68L21.0012 16.6354C21.0093 16.6793 21.045 16.7254 21.0578 16.7695C21.0736 16.8236 21.0775 16.8851 21.0721 16.9447C21.1185 16.9452 21.1649 16.9468 21.2112 16.9508L21.256 16.9548C21.5062 16.978 21.781 17.0207 21.9294 17.2371C22.0127 17.3586 21.9345 17.5775 21.7814 17.6009C21.5457 17.637 21.3428 17.5065 21.1079 17.4804C20.8859 17.4557 20.6536 17.4698 20.4345 17.51C19.9821 17.5927 19.5664 17.7761 19.1255 17.8912L19.0655 17.9065V17.9065L19.0656 17.9062C18.99 17.9245 18.9042 17.8194 18.979 17.7579C19.3322 17.4676 19.7844 17.2324 20.2298 17.0892C20.1649 16.9859 20.1449 16.8499 20.1892 16.739C20.1961 16.716 20.2046 16.6937 20.2136 16.6714L20.2324 16.6256V16.6256C20.2342 16.604 20.2383 16.5826 20.2443 16.5617L20.2453 16.5553V16.5553L20.2459 16.5557V16.5557C20.279 16.4479 20.3656 16.3545 20.4766 16.3239ZM24.9826 16.3406C25.0792 16.244 25.215 16.2582 25.3158 16.3343L25.3292 16.3448V16.3448C25.4242 16.3871 25.5028 16.4793 25.5544 16.5648C25.6081 16.6536 25.6437 16.7441 25.6451 16.8419C25.8789 16.8426 26.1029 16.9128 26.2746 17.1017C26.33 17.1626 26.3679 17.2566 26.3374 17.3393L26.3192 17.3884V17.3884C26.2615 17.5445 26.0024 17.6344 25.9143 17.4508L25.9102 17.4419C25.8166 17.2239 25.4573 17.2468 25.2664 17.2691C25.1333 17.2847 25.0019 17.3178 24.8733 17.3548C24.828 17.3679 24.7832 17.3821 24.7383 17.3965L24.6935 17.4111C24.6696 17.4188 24.545 17.4865 24.6225 17.4705C24.6433 17.4662 24.659 17.4965 24.6378 17.5067C24.5454 17.5509 24.4469 17.4629 24.453 17.3637C24.4637 17.1914 24.7372 17.0969 24.8688 17.0375L24.8767 17.0339C24.9271 17.0106 24.98 16.9882 25.0345 16.9675C25.0038 16.9218 24.9785 16.8711 24.9574 16.8166C24.9375 16.7652 24.9242 16.7153 24.9168 16.6606C24.9097 16.6339 24.9097 16.6072 24.9168 16.5804L24.9179 16.5728V16.5728C24.9142 16.5551 24.9124 16.5369 24.9127 16.5185L24.9119 16.5113H24.9127C24.9153 16.4469 24.9408 16.3824 24.9826 16.3406ZM23.4393 18.1754C23.8104 18.2901 24.4226 18.6026 24.2292 19.0849C23.9592 19.5279 23.243 19.2024 22.896 19.0592C22.5842 18.9559 22.4219 19.393 22.7234 19.5248C25.2146 20.5107 25.2054 17.9086 23.5296 17.9468C23.3451 17.951 23.3393 18.1372 23.4393 18.1754ZM20.1433 14.7825L20.2066 14.764C20.5355 14.6687 20.8713 14.5041 21.1634 14.7609C21.278 14.8617 21.3017 15.0713 21.2196 15.1971C21.0327 15.4838 20.7555 15.44 20.4535 15.4644C20.2237 15.483 19.9973 15.5505 19.7827 15.635C19.6073 15.704 19.4447 15.8012 19.2912 15.9095C19.1403 16.0161 19.0373 16.1827 18.8825 16.2786C18.8258 16.3138 18.7603 16.2776 18.74 16.2206C18.6678 16.0183 18.7897 15.7663 18.8929 15.594C19.0189 15.3837 19.2102 15.2118 19.4159 15.0817C19.6412 14.9392 19.8903 14.8569 20.1433 14.7825V14.7825ZM24.9364 14.5648C25.4924 14.5647 26.0274 14.874 26.3384 15.3275C26.444 15.4816 26.3666 15.7099 26.2149 15.7986C26.0447 15.8982 25.8628 15.8265 25.7506 15.6838L25.744 15.6751C25.5656 15.4375 25.3357 15.2504 25.0632 15.1286C24.9302 15.0691 24.7832 15.0209 24.6394 14.9964L24.5929 14.9884C24.5277 14.9775 24.4521 14.9671 24.3932 14.9773C24.3617 14.9814 24.3327 14.9919 24.306 15.0078C24.3188 15.0358 24.2857 15.0697 24.255 15.0528C24.1168 14.9769 24.1338 14.8415 24.2479 14.7362C24.4094 14.5873 24.7278 14.5649 24.9364 14.5648Z" fill="black"/>
</g>
<rect x="0.75" y="0.75" width="32.5" height="32.5" rx="16.25" stroke="#F6502E" stroke-width="1.5"/>
<defs>
<clipPath id="clip0_1_339">
<rect width="34" height="34" rx="17" fill="white"/>
</clipPath>
</defs>
</svg>
